/* XPM */
static char * x_xpm[] = {
"16 16 5 1",
" 	c #DCDCDCDCDCDC",
".	c #3C3C3C3C3C3C",
"X	c #C8C8C8C8C8C8",
"o	c #FFFF00000000",
"O	c #8B8B77776565",
"              ..",
" XXXXXXXXXXXXX..",
" XXXXXXXXXXXXX..",
" oooooXXXXXXoX..",
" XoooooXXXXoXX..",
" XXoooooXXoXXX..",
" XXXooooXoXXXX..",
" XXXXooXoXXXXX..",
" XXXXoXooooXXX..",
" XXXoXXXooooXX..",
" XXoXXXXoooooX..",
" XoXXXXXXooooo..",
" XXXXXXXXXXXXX..",
" XXXXXXXXXXXXX..",
"................",
"OOOOOOOOOOOOOOOO"};
